<?xml version="1.0" encoding="utf-8"?>
<!-- Generator: Adobe Illustrator 25.2.0, SVG Export Plug-In . SVG Version: 6.00 Build 0)  -->
<svg version="1.1" id="Capa_1" xmlns="http://www.w3.org/2000/svg" xmlns:xlink="http://www.w3.org/1999/xlink" x="0px" y="0px"
	 viewBox="0 0 2000 2000" style="enable-background:new 0 0 2000 2000;" xml:space="preserve">
<style type="text/css">
	.st0{clip-path:url(#SVGID_2_);fill:url(#SVGID_3_);}
	.st1{clip-path:url(#SVGID_5_);fill:url(#SVGID_6_);}
	.st2{clip-path:url(#SVGID_8_);fill:url(#SVGID_9_);}
	.st3{clip-path:url(#SVGID_11_);fill:url(#SVGID_12_);}
	.st4{clip-path:url(#SVGID_14_);fill:url(#SVGID_15_);}
	.st5{clip-path:url(#SVGID_17_);fill:url(#SVGID_18_);}
	.st6{clip-path:url(#SVGID_20_);fill:url(#SVGID_21_);}
	.st7{clip-path:url(#SVGID_23_);fill:url(#SVGID_24_);}
	.st8{clip-path:url(#SVGID_26_);fill:url(#SVGID_27_);}
</style>
<g>
	<defs>
		<path id="SVGID_1_" d="M242.61,958.24c-1.12-2.37-2.11-4.81-3-7.31c-3.1-8.7-4.78-18.07-4.78-27.82
			c0-40.73,29.28-74.61,67.95-81.72c2.49-0.45,5.01-0.8,7.55-1.04c2.51-0.22,5.03-0.34,7.6-0.34c45.9,0,83.1,37.2,83.1,83.1
			c0,45.9-37.2,83.11-83.1,83.11C284.59,1006.21,255.84,986.58,242.61,958.24 M278.79,743.15c-0.16,0.04-0.31,0.06-0.46,0.1
			c-0.5,0.11-1,0.21-1.5,0.33L142.73,979.34c-0.05,0-0.11-0.01-0.17-0.01c0.02,0.05,0.03,0.1,0.05,0.14c0,0.03,0.01,0.04,0.01,0.07
			c23.83,74.08,93.32,127.68,175.32,127.68c101.68,0,184.13-82.44,184.13-184.13c0-101.68-82.44-184.13-184.13-184.13
			C304.5,738.97,291.4,740.41,278.79,743.15"/>
	</defs>
	<clipPath id="SVGID_2_">
		<use xlink:href="#SVGID_1_"  style="overflow:visible;"/>
	</clipPath>
	
		<linearGradient id="SVGID_3_" gradientUnits="userSpaceOnUse" x1="624.373" y1="1701.7533" x2="633.1093" y2="1701.7533" gradientTransform="matrix(166.9457 89.2731 89.2731 -166.9457 -255894.2344 229252.0625)">
		<stop  offset="0" style="stop-color:#E39A28"/>
		<stop  offset="0.1233" style="stop-color:#F7C232"/>
		<stop  offset="0.3478" style="stop-color:#FAD861"/>
		<stop  offset="0.6184" style="stop-color:#FFF69E"/>
		<stop  offset="0.6575" style="stop-color:#FDF096"/>
		<stop  offset="0.7192" style="stop-color:#F8DE7F"/>
		<stop  offset="0.7956" style="stop-color:#EFC15A"/>
		<stop  offset="0.8827" style="stop-color:#E39A28"/>
		<stop  offset="0.8865" style="stop-color:#B7791D"/>
		<stop  offset="0.8901" style="stop-color:#945F15"/>
		<stop  offset="0.893" style="stop-color:#7F5010"/>
		<stop  offset="0.895" style="stop-color:#774A0E"/>
		<stop  offset="0.9917" style="stop-color:#774A0E"/>
		<stop  offset="1" style="stop-color:#774A0E"/>
	</linearGradient>
	<polygon class="st0" points="222.49,589.48 655.19,820.86 422.12,1256.72 -10.58,1025.34 	"/>
</g>
<g>
	<defs>
		<path id="SVGID_4_" d="M277.55,742.3l-0.73,1.28L142.73,979.34c2.58,0.13,5.17,0.2,7.78,0.2c33.25,0,64.01-10.61,89.11-28.62
			c34.92-25.05,58.84-64.44,63.17-109.54c0.47-4.88,0.72-9.83,0.72-14.83c0-29.17-8.16-56.44-22.34-79.63
			c-0.77-1.28-1.56-2.53-2.38-3.77c-0.3-0.47-0.6-0.94-0.92-1.4L277.55,742.3z"/>
	</defs>
	<clipPath id="SVGID_5_">
		<use xlink:href="#SVGID_4_"  style="overflow:visible;"/>
	</clipPath>
	
		<linearGradient id="SVGID_6_" gradientUnits="userSpaceOnUse" x1="624.3259" y1="1694.2196" x2="633.0622" y2="1694.2196" gradientTransform="matrix(32.0274 64.8112 64.8112 -32.0274 -129726.0938 14356.7129)">
		<stop  offset="0" style="stop-color:#E39A28"/>
		<stop  offset="0.1233" style="stop-color:#F7C232"/>
		<stop  offset="0.3478" style="stop-color:#FAD861"/>
		<stop  offset="0.6184" style="stop-color:#FFF69E"/>
		<stop  offset="0.6497" style="stop-color:#F8EE97"/>
		<stop  offset="0.6989" style="stop-color:#E7D784"/>
		<stop  offset="0.76" style="stop-color:#CAB265"/>
		<stop  offset="0.8298" style="stop-color:#A1803B"/>
		<stop  offset="0.895" style="stop-color:#774A0E"/>
		<stop  offset="0.9185" style="stop-color:#7A4C0F"/>
		<stop  offset="0.9382" style="stop-color:#855411"/>
		<stop  offset="0.9564" style="stop-color:#966115"/>
		<stop  offset="0.9738" style="stop-color:#AE731B"/>
		<stop  offset="0.9905" style="stop-color:#CD8A23"/>
		<stop  offset="1" style="stop-color:#E39A28"/>
	</linearGradient>
	<polygon class="st1" points="271.95,677.9 397.95,932.87 174.28,1043.4 48.28,788.42 	"/>
</g>
<g>
	<defs>
		<path id="SVGID_7_" d="M581.37,853.99v6.6h-37.24v66.95h37.24v179.15h89.57V927.55h58.45V860.6h-60.81v-5.66
			c0-22.63,10.84-33.47,29.7-33.47c9.44,0,19.33,3.3,26.87,7.54l22.16-63.16c-14.62-8.96-37.71-13.21-59.4-13.21
			C619.56,752.64,581.37,792.71,581.37,853.99"/>
	</defs>
	<clipPath id="SVGID_8_">
		<use xlink:href="#SVGID_7_"  style="overflow:visible;"/>
	</clipPath>
	
		<linearGradient id="SVGID_9_" gradientUnits="userSpaceOnUse" x1="624.373" y1="1702.4365" x2="633.1093" y2="1702.4365" gradientTransform="matrix(166.9457 89.2731 89.2731 -166.9457 -255886.0469 229236.7344)">
		<stop  offset="0" style="stop-color:#E39A28"/>
		<stop  offset="0.1233" style="stop-color:#F7C232"/>
		<stop  offset="0.3478" style="stop-color:#FAD861"/>
		<stop  offset="0.6184" style="stop-color:#FFF69E"/>
		<stop  offset="0.6497" style="stop-color:#F8EE97"/>
		<stop  offset="0.6989" style="stop-color:#E7D784"/>
		<stop  offset="0.76" style="stop-color:#CAB265"/>
		<stop  offset="0.8298" style="stop-color:#A1803B"/>
		<stop  offset="0.895" style="stop-color:#774A0E"/>
		<stop  offset="0.9185" style="stop-color:#7A4C0F"/>
		<stop  offset="0.9382" style="stop-color:#855411"/>
		<stop  offset="0.9564" style="stop-color:#966115"/>
		<stop  offset="0.9738" style="stop-color:#AE731B"/>
		<stop  offset="0.9905" style="stop-color:#CD8A23"/>
		<stop  offset="1" style="stop-color:#E39A28"/>
	</linearGradient>
	<polygon class="st2" points="589.31,668.14 894.55,831.37 702.14,1191.19 396.9,1027.97 	"/>
</g>
<g>
	<defs>
		<path id="SVGID_10_" d="M910.44,910.58c27.82,0,47.61,16.97,52.33,43.84H858.11C863.3,927.55,882.63,910.58,910.44,910.58
			 M769.48,978.46c0,76.38,58.93,132.48,149.91,132.48c48.56,0,84.39-14.14,108.91-41.48l-47.14-49.03
			c-17.45,15.08-33.95,22.16-58.93,22.16c-33,0-55.16-15.09-62.71-41.02h185.76c0.47-7.08,1.41-15.56,1.41-22.16
			c0-84.38-61.28-132.48-136.71-132.48C829.35,846.93,769.48,901.62,769.48,978.46"/>
	</defs>
	<clipPath id="SVGID_11_">
		<use xlink:href="#SVGID_10_"  style="overflow:visible;"/>
	</clipPath>
	
		<linearGradient id="SVGID_12_" gradientUnits="userSpaceOnUse" x1="624.373" y1="1702.813" x2="633.1093" y2="1702.813" gradientTransform="matrix(166.9457 89.2731 89.2731 -166.9457 -255881.7969 229228.7969)">
		<stop  offset="0" style="stop-color:#E39A28"/>
		<stop  offset="0.1233" style="stop-color:#F7C232"/>
		<stop  offset="0.3478" style="stop-color:#FAD861"/>
		<stop  offset="0.6184" style="stop-color:#FFF69E"/>
		<stop  offset="0.6497" style="stop-color:#F8EE97"/>
		<stop  offset="0.6989" style="stop-color:#E7D784"/>
		<stop  offset="0.76" style="stop-color:#CAB265"/>
		<stop  offset="0.8298" style="stop-color:#A1803B"/>
		<stop  offset="0.895" style="stop-color:#774A0E"/>
		<stop  offset="0.9185" style="stop-color:#7A4C0F"/>
		<stop  offset="0.9382" style="stop-color:#855411"/>
		<stop  offset="0.9564" style="stop-color:#966115"/>
		<stop  offset="0.9738" style="stop-color:#AE731B"/>
		<stop  offset="0.9905" style="stop-color:#CD8A23"/>
		<stop  offset="1" style="stop-color:#E39A28"/>
	</linearGradient>
	<polygon class="st3" points="831.12,731.66 1156.47,905.63 985.05,1226.21 659.7,1052.23 	"/>
</g>
<g>
	<defs>
		<path id="SVGID_13_" d="M1199.44,881.82v-30.65h-85.33v255.53h89.56V989.3c0-44.78,24.99-63.16,61.29-63.16
			c6.6,0,12.26,0.46,20.27,1.41v-80.62C1247.53,846.93,1217.82,858.71,1199.44,881.82"/>
	</defs>
	<clipPath id="SVGID_14_">
		<use xlink:href="#SVGID_13_"  style="overflow:visible;"/>
	</clipPath>
	
		<linearGradient id="SVGID_15_" gradientUnits="userSpaceOnUse" x1="624.373" y1="1703.4658" x2="633.1093" y2="1703.4658" gradientTransform="matrix(166.9457 89.2731 89.2731 -166.9457 -255874.3438 229214.875)">
		<stop  offset="0" style="stop-color:#E39A28"/>
		<stop  offset="0.1233" style="stop-color:#F7C232"/>
		<stop  offset="0.3478" style="stop-color:#FAD861"/>
		<stop  offset="0.6184" style="stop-color:#FFF69E"/>
		<stop  offset="0.6497" style="stop-color:#F8EE97"/>
		<stop  offset="0.6989" style="stop-color:#E7D784"/>
		<stop  offset="0.76" style="stop-color:#CAB265"/>
		<stop  offset="0.8298" style="stop-color:#A1803B"/>
		<stop  offset="0.895" style="stop-color:#774A0E"/>
		<stop  offset="0.9185" style="stop-color:#7A4C0F"/>
		<stop  offset="0.9382" style="stop-color:#855411"/>
		<stop  offset="0.9564" style="stop-color:#966115"/>
		<stop  offset="0.9738" style="stop-color:#AE731B"/>
		<stop  offset="0.9905" style="stop-color:#CD8A23"/>
		<stop  offset="1" style="stop-color:#E39A28"/>
	</linearGradient>
	<polygon class="st4" points="1152.17,775.77 1393.26,904.69 1247.19,1177.86 1006.09,1048.94 	"/>
</g>
<g>
	<defs>
		<path id="SVGID_16_" d="M1366.34,794.12v66.47h-37.26v66.95h37.26v85.81c0,65.53,38.18,97.58,103.72,97.58
			c23.57,0,46.66-4.72,62.22-14.62l-22.16-62.69c-7.54,5.18-17.45,8.01-27.34,8.01c-16.03,0-26.88-10.37-26.88-29.22v-84.87h58.46
			V860.6h-58.46v-66.47H1366.34z"/>
	</defs>
	<clipPath id="SVGID_17_">
		<use xlink:href="#SVGID_16_"  style="overflow:visible;"/>
	</clipPath>
	
		<linearGradient id="SVGID_18_" gradientUnits="userSpaceOnUse" x1="624.373" y1="1704.0714" x2="633.1093" y2="1704.0714" gradientTransform="matrix(166.9457 89.2731 89.2731 -166.9457 -255866.9531 229201.0469)">
		<stop  offset="0" style="stop-color:#E39A28"/>
		<stop  offset="0.1233" style="stop-color:#F7C232"/>
		<stop  offset="0.3478" style="stop-color:#FAD861"/>
		<stop  offset="0.6184" style="stop-color:#FFF69E"/>
		<stop  offset="0.6497" style="stop-color:#F8EE97"/>
		<stop  offset="0.6989" style="stop-color:#E7D784"/>
		<stop  offset="0.76" style="stop-color:#CAB265"/>
		<stop  offset="0.8298" style="stop-color:#A1803B"/>
		<stop  offset="0.895" style="stop-color:#774A0E"/>
		<stop  offset="0.9185" style="stop-color:#7A4C0F"/>
		<stop  offset="0.9382" style="stop-color:#855411"/>
		<stop  offset="0.9564" style="stop-color:#966115"/>
		<stop  offset="0.9738" style="stop-color:#AE731B"/>
		<stop  offset="0.9905" style="stop-color:#CD8A23"/>
		<stop  offset="1" style="stop-color:#E39A28"/>
	</linearGradient>
	<polygon class="st5" points="1374.26,709.63 1664.02,864.57 1487.09,1195.43 1197.34,1040.49 	"/>
</g>
<g>
	<defs>
		<polygon id="SVGID_19_" points="1552.97,849.36 1654.85,1088.62 1698.95,982.68 1645.73,849.36 		"/>
	</defs>
	<clipPath id="SVGID_20_">
		<use xlink:href="#SVGID_19_"  style="overflow:visible;"/>
	</clipPath>
	
		<linearGradient id="SVGID_21_" gradientUnits="userSpaceOnUse" x1="624.373" y1="1704.4314" x2="633.1093" y2="1704.4314" gradientTransform="matrix(166.9457 89.2731 89.2731 -166.9457 -255862.5 229192.7344)">
		<stop  offset="0" style="stop-color:#E39A28"/>
		<stop  offset="0.1233" style="stop-color:#F7C232"/>
		<stop  offset="0.3478" style="stop-color:#FAD861"/>
		<stop  offset="0.6184" style="stop-color:#FFF69E"/>
		<stop  offset="0.6497" style="stop-color:#F8EE97"/>
		<stop  offset="0.6989" style="stop-color:#E7D784"/>
		<stop  offset="0.76" style="stop-color:#CAB265"/>
		<stop  offset="0.8298" style="stop-color:#A1803B"/>
		<stop  offset="0.895" style="stop-color:#774A0E"/>
		<stop  offset="0.9185" style="stop-color:#7A4C0F"/>
		<stop  offset="0.9382" style="stop-color:#855411"/>
		<stop  offset="0.9564" style="stop-color:#966115"/>
		<stop  offset="0.9738" style="stop-color:#AE731B"/>
		<stop  offset="0.9905" style="stop-color:#CD8A23"/>
		<stop  offset="1" style="stop-color:#E39A28"/>
	</linearGradient>
	<polygon class="st6" points="1585.43,788.66 1798.44,902.56 1666.49,1149.32 1453.48,1035.41 	"/>
</g>
<g>
	<defs>
		<path id="SVGID_22_" d="M586.56,1190.13c0,6.37,5.17,11.53,11.53,11.53c6.37,0,11.53-5.16,11.53-11.53s-5.16-11.53-11.53-11.53
			C591.73,1178.6,586.56,1183.76,586.56,1190.13"/>
	</defs>
	<clipPath id="SVGID_23_">
		<use xlink:href="#SVGID_22_"  style="overflow:visible;"/>
	</clipPath>
	
		<linearGradient id="SVGID_24_" gradientUnits="userSpaceOnUse" x1="624.373" y1="1701.2589" x2="633.1093" y2="1701.2589" gradientTransform="matrix(166.9457 89.2731 89.2731 -166.9457 -255899.8125 229262.5)">
		<stop  offset="0" style="stop-color:#E39A28"/>
		<stop  offset="0.1233" style="stop-color:#F7C232"/>
		<stop  offset="0.3478" style="stop-color:#FAD861"/>
		<stop  offset="0.6184" style="stop-color:#FFF69E"/>
		<stop  offset="0.6497" style="stop-color:#F8EE97"/>
		<stop  offset="0.6989" style="stop-color:#E7D784"/>
		<stop  offset="0.76" style="stop-color:#CAB265"/>
		<stop  offset="0.8298" style="stop-color:#A1803B"/>
		<stop  offset="0.895" style="stop-color:#774A0E"/>
		<stop  offset="0.9185" style="stop-color:#7A4C0F"/>
		<stop  offset="0.9382" style="stop-color:#855411"/>
		<stop  offset="0.9564" style="stop-color:#966115"/>
		<stop  offset="0.9738" style="stop-color:#AE731B"/>
		<stop  offset="0.9905" style="stop-color:#CD8A23"/>
		<stop  offset="1" style="stop-color:#E39A28"/>
	</linearGradient>
	<polygon class="st7" points="591.68,1169.01 619.21,1183.73 604.49,1211.25 576.96,1196.53 	"/>
</g>
<g>
	<defs>
		<path id="SVGID_25_" d="M1771.61,849.36c0,0-103.32,248.64-117.01,278.79c-13.69,30.17-48.24,26.87-48.24,26.87l-967.17,22.98
			v0.01c-6.52,0-11.79,5.29-11.79,11.8c0,6.52,5.28,11.8,11.79,11.8v0.04h949.26c136.61,0,153.76-77.05,153.76-77.05l115.24-275.25
			H1771.61z"/>
	</defs>
	<clipPath id="SVGID_26_">
		<use xlink:href="#SVGID_25_"  style="overflow:visible;"/>
	</clipPath>
	
		<linearGradient id="SVGID_27_" gradientUnits="userSpaceOnUse" x1="624.373" y1="1703.3579" x2="633.1093" y2="1703.3579" gradientTransform="matrix(166.9457 89.2731 89.2731 -166.9457 -255875.4688 229216.9688)">
		<stop  offset="0" style="stop-color:#E39A28"/>
		<stop  offset="0.1233" style="stop-color:#F7C232"/>
		<stop  offset="0.3478" style="stop-color:#FAD861"/>
		<stop  offset="0.6184" style="stop-color:#FFF69E"/>
		<stop  offset="0.6497" style="stop-color:#F8EE97"/>
		<stop  offset="0.6989" style="stop-color:#E7D784"/>
		<stop  offset="0.76" style="stop-color:#CAB265"/>
		<stop  offset="0.8298" style="stop-color:#A1803B"/>
		<stop  offset="0.895" style="stop-color:#774A0E"/>
		<stop  offset="0.9185" style="stop-color:#7A4C0F"/>
		<stop  offset="0.9382" style="stop-color:#855411"/>
		<stop  offset="0.9564" style="stop-color:#966115"/>
		<stop  offset="0.9738" style="stop-color:#AE731B"/>
		<stop  offset="0.9905" style="stop-color:#CD8A23"/>
		<stop  offset="1" style="stop-color:#E39A28"/>
	</linearGradient>
	<polygon class="st8" points="900.92,337.87 2003.95,927.7 1583.93,1713.16 480.9,1123.32 	"/>
</g>
</svg>
