<?xml version="1.0" encoding="utf-8"?>
<!-- Generator: Adobe Illustrator 24.0.2, SVG Export Plug-In . SVG Version: 6.00 Build 0)  -->
<svg version="1.1" id="Capa_1" xmlns="http://www.w3.org/2000/svg" xmlns:xlink="http://www.w3.org/1999/xlink" x="0px" y="0px"
	 viewBox="0 0 2000 1000" style="enable-background:new 0 0 2000 1000;" xml:space="preserve">
<style type="text/css">
	.st0{fill:#FA7100;}
	.st1{opacity:0.2;}
	.st2{fill:#FB8F01;}
	.st3{fill:#0F92F9;}
</style>
<g>
	<path class="st0" d="M309.83,256.3c-14.15,0-27.94,1.52-41.24,4.39c-0.16,0.03-0.33,0.07-0.49,0.11c-0.53,0.11-1.06,0.23-1.58,0.35
		L125.27,509.5c-0.06,0-0.12-0.01-0.19-0.01c0.01,0.05,0.03,0.1,0.05,0.15c0.01,0.02,0.01,0.04,0.02,0.06
		c25.1,78.04,98.29,134.51,184.67,134.51c107.12,0,193.96-86.84,193.96-193.96S416.95,256.3,309.83,256.3z M309.83,537.8
		c-35.12,0-65.4-20.67-79.35-50.52c-1.17-2.51-2.23-5.08-3.16-7.71c-3.26-9.17-5.03-19.03-5.03-29.31
		c0-42.9,30.85-78.59,71.59-86.09c2.61-0.48,5.26-0.84,7.94-1.09c2.64-0.23,5.31-0.36,8.01-0.36c48.35,0,87.54,39.19,87.54,87.54
		C397.37,498.61,358.18,537.8,309.83,537.8z"/>
	<path class="st1" d="M301.93,357.18c0,1.98-0.03,3.95-0.11,5.9c-1.97,52.24-29.94,97.84-71.34,124.2
		c-23.89,15.21-52.26,24.03-82.68,24.03c-7.68,0-15.24-0.56-22.62-1.65c-0.02,0.01-0.03,0-0.05-0.01c-0.51-0.07-1.03-0.14-1.54-0.23
		c0.49,0.03,0.99,0.05,1.49,0.08c0.06,0,0.12,0.01,0.19,0.01l141.26-248.35l0.77-1.35c0.27,0.34,0.54,0.67,0.81,1
		c1.02,1.27,2.02,2.56,2.99,3.86C290.46,290.43,301.93,322.46,301.93,357.18z"/>
	<path class="st2" d="M294.63,348.54c0,5.27-0.25,10.48-0.75,15.63c-4.57,47.52-29.78,89.01-66.56,115.4
		c-26.43,18.97-58.84,30.14-93.86,30.14c-2.75,0-5.48-0.07-8.19-0.21l141.26-248.35l0.77-1.35l0.33-0.58
		c0.33,0.49,0.65,0.98,0.97,1.48c0.86,1.31,1.7,2.63,2.51,3.97C286.03,289.1,294.63,317.81,294.63,348.54z"/>
</g>
<g>
	<path class="st0" d="M679.21,384.42h64.07v70.52H681.7v188.72h-94.36V454.95h-39.24v-70.52h39.24v-6.95
		c0-64.56,40.23-106.77,112.24-106.77c22.84,0,47.18,4.47,62.57,13.91l-23.34,66.55c-7.95-4.47-18.37-7.95-28.31-7.95
		c-19.86,0-31.29,11.42-31.29,35.26V384.42z"/>
	<path class="st0" d="M1076.02,532.92H880.35c7.95,27.31,31.29,43.21,66.05,43.21c26.32,0,43.7-7.45,62.08-23.34l49.66,51.65
		c-25.83,28.8-63.57,43.7-114.72,43.7c-95.85,0-157.93-59.1-157.93-139.55c0-80.95,63.07-138.56,147.99-138.56
		c79.46,0,144.02,50.66,144.02,139.55C1077.51,516.53,1076.51,525.47,1076.02,532.92z M878.86,483.25h110.25
		c-4.97-28.31-25.83-46.19-55.13-46.19C904.68,437.07,884.32,454.95,878.86,483.25z"/>
	<path class="st0" d="M1328.8,370.02v84.92c-8.44-0.99-14.4-1.49-21.36-1.49c-38.24,0-64.56,19.37-64.56,66.55v123.66h-94.36V374.49
		h89.89v32.28C1257.78,382.44,1289.06,370.02,1328.8,370.02z"/>
	<path class="st0" d="M1589.02,632.74c-16.39,10.43-40.72,15.4-65.55,15.4c-69.03,0-109.26-33.77-109.26-102.8v-90.39h-39.24v-70.52
		h39.24V314.4h94.36v70.02h61.58v70.52h-61.58v89.39c0,19.86,11.42,30.79,28.31,30.79c10.43,0,20.86-2.98,28.8-8.44L1589.02,632.74z
		"/>
	<polygon class="st3" points="1610.81,372.59 1708.53,372.59 1764.6,513.02 1718.14,624.62 	"/>
	<circle class="st3" cx="604.95" cy="731.55" r="12.15"/>
	<path class="st3" d="M1841.13,372.59c0,0-108.84,261.91-123.26,293.68c-14.42,31.77-50.82,28.3-50.82,28.3L648.24,718.78v0.01
		c-6.86,0-12.43,5.57-12.43,12.43c0,6.86,5.57,12.43,12.43,12.43v0.05c0,0,862.72,0,999.95,0c143.91,0,161.97-81.16,161.97-81.16
		l121.39-289.95H1841.13z"/>
</g>
</svg>
